<mxfile host="app.diagrams.net" agent="Mozilla/5.0 (Windows NT 10.0; Win64; x64) AppleWebKit/537.36 (KHTML, like Gecko) Chrome/130.0.0.0 Safari/537.36 Edg/130.0.0.0" version="26.0.14">
  <diagram name="Page-1" id="qiVYbcJgcP4QGyWJ5dh2">
    <mxGraphModel dx="735" dy="445" grid="1" gridSize="10" guides="1" tooltips="1" connect="1" arrows="1" fold="1" page="1" pageScale="1" pageWidth="827" pageHeight="1169" math="0" shadow="0">
      <root>
        <mxCell id="0" />
        <mxCell id="1" parent="0" />
        <mxCell id="w5CPJHepUbWhiFuLjUlP-1" value="" style="endArrow=none;html=1;rounded=0;" edge="1" parent="1">
          <mxGeometry width="50" height="50" relative="1" as="geometry">
            <mxPoint x="200" y="120" as="sourcePoint" />
            <mxPoint x="560" y="120" as="targetPoint" />
          </mxGeometry>
        </mxCell>
        <mxCell id="w5CPJHepUbWhiFuLjUlP-2" value="Client programs" style="text;html=1;align=center;verticalAlign=middle;resizable=0;points=[];autosize=1;strokeColor=none;fillColor=none;" vertex="1" parent="1">
          <mxGeometry x="330" y="90" width="110" height="30" as="geometry" />
        </mxCell>
        <mxCell id="w5CPJHepUbWhiFuLjUlP-3" value="" style="rounded=0;whiteSpace=wrap;html=1;" vertex="1" parent="1">
          <mxGeometry x="210" y="160" width="340" height="190" as="geometry" />
        </mxCell>
        <mxCell id="w5CPJHepUbWhiFuLjUlP-5" value="" style="shape=flexArrow;endArrow=classic;html=1;rounded=0;entryX=0.296;entryY=-0.002;entryDx=0;entryDy=0;entryPerimeter=0;" edge="1" parent="1" target="w5CPJHepUbWhiFuLjUlP-3">
          <mxGeometry width="50" height="50" relative="1" as="geometry">
            <mxPoint x="310" y="120" as="sourcePoint" />
            <mxPoint x="350" y="190" as="targetPoint" />
          </mxGeometry>
        </mxCell>
        <mxCell id="w5CPJHepUbWhiFuLjUlP-6" value="" style="shape=flexArrow;endArrow=classic;html=1;rounded=0;entryX=0.296;entryY=-0.002;entryDx=0;entryDy=0;entryPerimeter=0;" edge="1" parent="1">
          <mxGeometry width="50" height="50" relative="1" as="geometry">
            <mxPoint x="430" y="120" as="sourcePoint" />
            <mxPoint x="431" y="160" as="targetPoint" />
          </mxGeometry>
        </mxCell>
        <mxCell id="w5CPJHepUbWhiFuLjUlP-8" value="" style="endArrow=none;html=1;rounded=0;dashed=1;dashPattern=8 8;" edge="1" parent="1">
          <mxGeometry width="50" height="50" relative="1" as="geometry">
            <mxPoint x="240" y="250" as="sourcePoint" />
            <mxPoint x="520" y="250" as="targetPoint" />
          </mxGeometry>
        </mxCell>
        <mxCell id="w5CPJHepUbWhiFuLjUlP-9" value="Process&lt;div&gt;management&lt;/div&gt;" style="rounded=1;whiteSpace=wrap;html=1;" vertex="1" parent="1">
          <mxGeometry x="240" y="190" width="80" height="40" as="geometry" />
        </mxCell>
        <mxCell id="w5CPJHepUbWhiFuLjUlP-10" value="Memory&lt;div&gt;allocation&lt;/div&gt;" style="rounded=1;whiteSpace=wrap;html=1;" vertex="1" parent="1">
          <mxGeometry x="340" y="190" width="80" height="40" as="geometry" />
        </mxCell>
        <mxCell id="w5CPJHepUbWhiFuLjUlP-11" value="Initialization" style="rounded=1;whiteSpace=wrap;html=1;" vertex="1" parent="1">
          <mxGeometry x="440" y="190" width="80" height="40" as="geometry" />
        </mxCell>
        <mxCell id="w5CPJHepUbWhiFuLjUlP-12" value="Remote&lt;div&gt;operation&lt;/div&gt;" style="rounded=1;whiteSpace=wrap;html=1;" vertex="1" parent="1">
          <mxGeometry x="240" y="270" width="100" height="60" as="geometry" />
        </mxCell>
        <mxCell id="w5CPJHepUbWhiFuLjUlP-13" value="Memory&lt;div&gt;mapping&lt;/div&gt;" style="rounded=1;whiteSpace=wrap;html=1;" vertex="1" parent="1">
          <mxGeometry x="400" y="270" width="100" height="60" as="geometry" />
        </mxCell>
        <mxCell id="w5CPJHepUbWhiFuLjUlP-14" value="" style="shape=flexArrow;endArrow=classic;html=1;rounded=0;entryX=0.296;entryY=-0.002;entryDx=0;entryDy=0;entryPerimeter=0;" edge="1" parent="1">
          <mxGeometry width="50" height="50" relative="1" as="geometry">
            <mxPoint x="310" y="350" as="sourcePoint" />
            <mxPoint x="311" y="390" as="targetPoint" />
          </mxGeometry>
        </mxCell>
        <mxCell id="w5CPJHepUbWhiFuLjUlP-15" value="" style="shape=flexArrow;endArrow=classic;html=1;rounded=0;entryX=0.296;entryY=-0.002;entryDx=0;entryDy=0;entryPerimeter=0;" edge="1" parent="1">
          <mxGeometry width="50" height="50" relative="1" as="geometry">
            <mxPoint x="430" y="350" as="sourcePoint" />
            <mxPoint x="431" y="390" as="targetPoint" />
          </mxGeometry>
        </mxCell>
        <mxCell id="w5CPJHepUbWhiFuLjUlP-16" value="" style="endArrow=none;html=1;rounded=0;" edge="1" parent="1">
          <mxGeometry width="50" height="50" relative="1" as="geometry">
            <mxPoint x="200" y="390" as="sourcePoint" />
            <mxPoint x="560" y="390" as="targetPoint" />
          </mxGeometry>
        </mxCell>
        <mxCell id="w5CPJHepUbWhiFuLjUlP-17" value="OS low-level support" style="text;html=1;align=center;verticalAlign=middle;resizable=0;points=[];autosize=1;strokeColor=none;fillColor=none;" vertex="1" parent="1">
          <mxGeometry x="315" y="398" width="130" height="30" as="geometry" />
        </mxCell>
      </root>
    </mxGraphModel>
  </diagram>
</mxfile>
